<?xml version="1.0" standalone="no"?>
<!DOCTYPE svg PUBLIC "-//W3C//DTD SVG 20010904//EN"
 "http://www.w3.org/TR/2001/REC-SVG-20010904/DTD/svg10.dtd">
<svg version="1.0" xmlns="http://www.w3.org/2000/svg"
 width="480.000000pt" height="480.000000pt" viewBox="0 0 480.000000 480.000000"
 preserveAspectRatio="xMidYMid meet">
<metadata>
Created by potrace 1.11, written by Peter Selinger 2001-2013
</metadata>
<g transform="translate(0.000000,480.000000) scale(0.100000,-0.100000)"
fill="#000000" stroke="none">
<path d="M3278 4374 c-4 -5 -28 -9 -55 -8 -103 3 -169 -50 -176 -141 -2 -19
-6 -38 -10 -41 -4 -4 -2 -13 4 -21 9 -9 8 -13 0 -14 -20 -3 -26 -4 -38 -12 -7
-5 -13 -4 -13 2 0 10 -45 9 -55 -1 -3 -3 -23 -2 -43 2 -21 4 -47 3 -58 0 -10
-4 -23 -5 -29 -2 -16 10 -45 9 -45 0 0 -5 -4 -6 -10 -3 -18 11 -49 14 -55 5
-3 -5 -11 -7 -18 -5 -24 9 -97 12 -97 4 0 -4 -9 -5 -19 -2 -46 12 -127 -52
-138 -109 -3 -16 -12 -28 -22 -29 -14 0 -14 -1 -1 -7 19 -9 23 -55 4 -48 -8 3
-14 1 -14 -4 0 -6 6 -10 14 -10 18 0 14 -28 -5 -42 -12 -8 -12 -9 2 -5 12 4
15 -4 15 -43 0 -27 -3 -47 -7 -45 -3 3 -15 -2 -25 -11 -18 -14 -18 -15 4 -4
12 6 22 9 23 8 6 -23 3 -48 -8 -52 -7 -3 -13 -1 -13 3 0 5 -8 7 -19 4 -10 -3
-22 0 -25 6 -5 7 -1 8 11 4 14 -5 13 -1 -6 20 l-23 26 23 -6 c23 -6 23 -6 7
11 -24 24 -23 41 5 54 19 10 20 11 2 9 -18 -2 -20 4 -21 68 -1 39 -2 72 -4 75
-1 3 -3 16 -4 28 -2 13 -9 28 -17 33 -12 7 -12 9 1 9 8 0 -7 15 -34 32 l-49
32 -226 2 c-124 1 -238 2 -253 3 -24 1 -26 5 -30 49 -3 26 -8 56 -13 66 -7 16
-5 18 9 13 10 -4 15 -3 11 3 -3 6 -13 10 -22 10 -25 0 -44 32 -30 49 10 12 9
12 -11 0 -14 -9 -25 -10 -30 -4 -8 12 -25 16 -64 17 -16 1 -25 5 -21 11 4 6 1
7 -8 1 -21 -13 -173 -13 -181 0 -5 7 -8 8 -8 0 0 -11 -204 -14 -215 -2 -4 4
-16 1 -26 -5 -16 -10 -21 -9 -29 3 -6 9 -10 10 -10 3 0 -14 -42 -13 -52 2 -5
7 -8 7 -8 0 0 -6 -21 -11 -48 -10 -85 1 -134 -17 -168 -63 -18 -22 -33 -39
-35 -37 -2 2 -3 -26 -3 -61 1 -36 -3 -67 -8 -70 -5 -3 -5 -11 1 -18 12 -14 10
-74 -3 -95 -6 -10 -5 -12 2 -7 7 4 12 1 12 -8 0 -9 -6 -16 -12 -16 -8 0 -9 -3
-3 -8 15 -10 16 -28 2 -30 -7 -1 -34 -4 -62 -7 -27 -3 -56 -6 -62 -7 -7 -1
-28 -15 -47 -32 -37 -34 -53 -87 -50 -168 0 -29 -4 -48 -10 -48 -8 0 -8 -3 0
-8 11 -7 15 -141 4 -143 -37 -5 -81 -2 -84 6 -3 7 -5 7 -5 0 -1 -6 -38 -10
-93 -9 -66 1 -99 -3 -116 -14 -12 -8 -22 -12 -22 -9 0 4 -11 -4 -23 -16 -13
-12 -23 -24 -23 -27 0 -3 -5 -15 -12 -27 -7 -12 -12 -26 -11 -30 1 -4 1 -10 0
-13 -3 -6 -4 -113 -1 -120 5 -18 4 -87 -2 -83 -10 6 -10 -1 1 -30 6 -14 7 -28
3 -31 -11 -12 -10 -36 1 -36 8 0 8 -3 2 -8 -5 -4 -10 -20 -10 -37 0 -16 5 -33
10 -37 6 -5 5 -8 -3 -8 -14 0 -12 -21 3 -32 7 -5 7 -8 0 -8 -5 0 -11 -11 -11
-25 -1 -14 3 -25 9 -25 5 0 2 -8 -7 -19 -14 -16 -15 -19 -2 -24 11 -4 12 -14
6 -44 -5 -21 -10 -40 -10 -42 -1 -2 4 -8 12 -12 10 -7 10 -9 0 -9 -8 0 -10 -5
-6 -12 11 -17 12 -48 2 -42 -10 7 -10 1 1 -29 6 -14 7 -28 3 -31 -11 -12 -10
-36 1 -36 8 0 8 -3 2 -8 -5 -4 -10 -20 -10 -37 0 -16 5 -33 10 -37 6 -5 5 -8
-2 -8 -15 0 -13 -21 2 -32 7 -5 7 -8 0 -8 -5 0 -11 -11 -11 -25 -1 -14 3 -25
9 -25 5 0 2 -8 -7 -19 -14 -16 -15 -19 -2 -24 13 -5 12 -24 -3 -81 -2 -5 3
-13 11 -17 10 -7 10 -9 0 -9 -8 0 -10 -5 -6 -12 10 -16 13 -48 4 -43 -4 2 -7
-9 -6 -25 1 -17 6 -30 11 -30 6 0 4 -4 -3 -9 -8 -4 -14 -12 -14 -16 0 -4 6
-12 14 -16 7 -5 8 -9 2 -9 -6 0 -10 -10 -8 -22 1 -13 3 -23 4 -23 2 0 10 -36
12 -57 1 -9 5 -15 8 -13 3 1 11 -3 18 -11 7 -8 9 -14 5 -14 -4 0 5 -7 21 -15
15 -8 34 -15 42 -15 7 0 18 -8 23 -17 6 -10 11 -13 11 -6 0 6 8 10 18 8 9 -2
26 -4 36 -4 16 -1 17 -4 8 -13 -7 -7 -12 -17 -12 -22 0 -6 5 -4 11 4 9 12 10
11 6 -7 -3 -12 0 -24 7 -27 8 -3 7 -5 -1 -5 -14 -1 -6 -32 11 -43 8 -6 6 -12
-4 -19 -11 -8 -12 -10 -1 -7 8 2 28 -10 45 -28 17 -17 39 -30 49 -29 9 2 17
-3 17 -11 0 -8 5 -14 11 -14 5 0 7 5 4 10 -3 6 5 10 19 10 13 0 27 -6 29 -12
4 -10 6 -10 6 0 1 6 8 12 17 12 14 0 15 -2 3 -17 -13 -17 -13 -17 6 -1 26 22
112 21 119 -2 3 -12 4 -11 5 3 1 20 12 22 30 5 11 -10 13 -10 7 0 -9 14 12 16
34 2 12 -8 12 -10 -5 -10 -15 0 -17 -2 -6 -9 7 -5 11 -13 7 -19 -3 -6 0 -13 6
-15 10 -4 10 -6 0 -6 -7 -1 -10 -6 -6 -12 10 -17 10 -99 0 -99 -5 0 -3 -6 3
-14 8 -10 9 -16 1 -21 -6 -3 -7 -12 -3 -18 4 -7 8 -27 10 -46 1 -19 7 -37 13
-41 9 -6 9 -13 -1 -31 -30 -58 -31 -61 -17 -53 7 4 4 -3 -7 -16 -11 -13 -14
-20 -6 -15 11 6 13 2 9 -18 -3 -15 0 -28 6 -31 7 -3 8 -7 1 -13 -11 -9 -13
-48 -2 -59 4 -4 2 -13 -4 -20 -7 -8 -7 -14 1 -19 8 -5 6 -14 -7 -28 -10 -11
-12 -17 -6 -13 12 6 17 -4 15 -25 -7 -55 -8 -79 -2 -79 7 0 4 -55 -4 -69 -3
-4 -1 -13 4 -21 5 -8 5 -21 -1 -31 -6 -12 -5 -19 4 -22 9 -4 9 -7 0 -14 -7 -5
-9 -14 -3 -22 4 -8 5 -24 0 -36 -5 -12 -4 -28 0 -35 5 -8 4 -22 -1 -31 -6 -12
-5 -19 4 -22 8 -4 8 -8 2 -14 -11 -9 -13 -48 -2 -59 4 -4 7 -14 7 -22 0 -8 14
-28 30 -44 17 -15 30 -32 30 -36 0 -8 13 -10 84 -13 30 -1 43 -6 40 -14 -3 -6
2 -12 10 -12 9 0 12 6 8 16 -5 14 -4 14 13 1 11 -9 16 -10 11 -2 -5 8 -1 11
16 8 15 -2 23 -10 22 -23 0 -11 5 -20 11 -20 7 0 10 10 7 24 -6 29 6 30 19 1
l10 -23 -5 23 c-3 18 -1 22 11 18 8 -3 19 -6 24 -6 6 0 7 -4 4 -10 -3 -5 -1
-10 4 -10 6 0 11 7 11 17 0 14 3 14 22 -3 14 -11 18 -13 11 -3 -11 14 -6 15
45 15 31 -1 63 -5 70 -9 7 -5 12 -3 12 5 1 8 7 5 17 -7 13 -16 15 -17 10 -3
-8 23 24 19 55 -7 13 -11 17 -13 11 -5 -19 21 -16 28 10 25 12 -1 28 -3 36 -4
8 0 11 -7 7 -17 -3 -8 -2 -12 4 -9 6 3 10 13 10 22 0 14 3 13 22 -3 14 -12 18
-13 10 -3 -11 14 -7 16 30 15 39 -2 43 -4 43 -28 0 -14 3 -29 6 -33 4 -3 6 2
6 12 0 52 2 56 20 42 14 -12 16 -12 9 0 -7 11 -1 13 26 9 25 -2 34 0 31 8 -2
7 1 15 8 20 8 5 10 3 4 -7 -4 -8 4 -3 17 11 14 14 23 28 21 33 -2 4 1 6 9 5 8
-2 13 6 12 20 -1 12 3 22 7 22 5 0 7 11 3 24 -3 13 -1 27 5 30 6 4 11 12 11
17 0 6 -4 8 -9 5 -5 -4 -8 1 -7 10 1 8 9 19 16 24 7 5 15 16 16 24 1 9 -2 14
-7 10 -5 -3 -7 -10 -4 -15 4 -5 -1 -9 -9 -9 -17 0 -17 20 -1 32 6 5 4 8 -5 9
-10 0 -8 3 5 9 l20 9 -20 0 c-17 1 -17 3 -5 11 10 6 11 10 3 10 -17 0 -16 12
3 36 14 18 15 18 9 -6 -5 -21 -4 -22 5 -7 14 22 5 38 -18 30 -16 -5 -16 -4 1
13 15 16 19 17 27 4 5 -8 12 -11 17 -7 11 12 -19 27 -41 21 -12 -4 -16 -2 -12
5 10 15 49 14 65 -1 11 -10 13 -10 7 0 -4 6 -2 12 3 12 6 0 11 -4 11 -9 0 -5
7 -12 16 -15 10 -4 13 -2 8 6 -5 8 -2 9 10 5 10 -4 15 -3 11 3 -3 6 28 9 79 8
50 0 83 -5 80 -10 -3 -5 3 -4 14 3 16 10 23 10 35 0 10 -8 17 -8 21 -2 4 6 36
10 72 10 36 -1 70 4 77 9 7 5 22 8 34 7 12 -1 20 2 17 6 -2 4 4 15 13 25 11
11 18 13 21 5 2 -6 8 -11 14 -11 6 0 3 9 -7 20 -10 11 -13 20 -7 20 7 0 15 0
20 0 4 0 7 -4 7 -9 0 -6 7 -16 15 -23 12 -11 12 -11 3 2 -6 8 -9 23 -8 33 2 9
-1 15 -5 12 -5 -3 -11 -1 -15 5 -3 6 4 11 17 11 17 1 18 3 6 6 -10 2 -18 8
-18 13 0 5 8 11 18 13 15 4 15 5 0 6 -13 1 -17 10 -16 41 0 22 4 37 9 34 5 -3
9 0 9 5 0 6 -4 11 -8 11 -12 0 -10 84 2 92 8 5 8 8 0 8 -12 0 -14 54 -2 65 3
4 17 8 30 9 22 3 24 -1 25 -51 1 -30 4 -57 7 -60 3 -4 1 -13 -6 -20 -7 -9 -8
-17 -2 -21 13 -10 16 -32 4 -32 -5 0 -10 5 -10 10 0 6 -7 10 -16 10 -12 0 -9
-6 10 -21 21 -17 24 -24 15 -35 -6 -8 -8 -14 -3 -14 5 0 2 -5 -6 -10 -13 -9
-13 -10 0 -10 10 0 15 -11 16 -30 1 -24 -2 -28 -12 -19 -8 6 -12 15 -9 19 3 5
1 11 -4 14 -17 11 -5 -24 17 -47 12 -13 19 -27 15 -30 -3 -4 1 -7 10 -7 10 0
17 -8 17 -21 0 -11 4 -18 9 -14 5 3 16 -1 24 -9 8 -8 17 -12 21 -9 3 4 6 1 6
-6 0 -7 5 -9 10 -6 6 3 10 2 10 -3 0 -9 65 -7 82 4 7 4 8 3 4 -4 -4 -7 -2 -12
3 -12 6 0 11 6 11 13 0 8 3 7 9 -3 6 -8 8 -17 6 -20 -2 -4 2 -7 10 -7 11 0 12
4 4 13 -8 10 -6 13 8 12 10 0 26 3 36 7 12 5 17 3 17 -10 0 -10 -5 -13 -12 -9
-7 5 -8 3 -3 -6 6 -10 11 -9 22 5 7 11 13 15 13 9 0 -5 5 -2 10 6 6 10 10 11
10 3 0 -8 7 -10 23 -5 27 9 48 9 64 -1 6 -4 15 -2 18 3 5 7 12 5 22 -7 8 -10
11 -12 7 -4 -5 10 -3 13 8 9 8 -4 21 -2 28 2 7 5 24 4 36 0 14 -6 26 -5 29 0
4 6 11 5 19 -3 8 -6 12 -16 9 -21 -3 -4 -9 -2 -14 5 -6 10 -8 7 -6 -8 0 -12 4
-20 8 -17 6 3 12 -70 10 -121 -3 -113 -2 -137 9 -150 7 -9 8 -15 2 -15 -20 0
64 -74 88 -78 13 -2 28 -9 32 -15 5 -9 8 -8 9 3 0 10 3 8 9 -5 5 -11 9 -14 9
-7 1 7 6 10 11 7 6 -3 10 -2 10 4 0 6 7 8 16 4 15 -6 15 -7 -1 -19 -16 -12
-16 -13 3 -11 11 0 20 4 20 7 -2 19 3 30 12 25 5 -3 6 -13 3 -23 -5 -14 -3
-13 9 2 19 24 58 29 58 7 0 -13 2 -13 9 -2 6 8 16 11 31 6 17 -6 21 -4 14 6
-6 12 -5 12 8 1 11 -9 18 -10 23 -2 3 6 11 7 17 4 6 -4 5 -10 -3 -15 -8 -5 -9
-9 -3 -9 6 0 17 7 24 15 9 11 17 12 31 4 14 -7 19 -6 19 3 0 10 2 10 9 -1 6
-9 10 -10 16 -2 5 9 11 9 23 -1 10 -8 16 -9 19 -2 4 11 47 10 77 -2 13 -5 17
-4 12 4 -5 8 -2 10 8 6 9 -3 13 -11 10 -18 -3 -6 1 -4 8 6 10 12 19 13 31 7
12 -7 17 -6 17 1 0 6 5 8 11 5 6 -4 8 -13 6 -19 -3 -7 1 -13 8 -13 7 0 10 9 8
21 -4 15 -2 17 5 8 12 -17 22 -17 33 0 7 10 9 9 9 -5 0 -17 1 -17 16 -2 11 11
20 13 28 6 9 -7 16 -7 24 1 9 9 12 7 13 -7 0 -18 1 -17 9 3 6 14 21 25 40 28
16 4 27 10 24 15 -3 5 0 9 6 9 6 0 9 4 6 9 -4 5 -1 11 6 13 18 6 20 29 21 328
2 232 5 287 16 296 11 9 12 12 1 19 -9 6 -11 4 -5 -6 5 -8 4 -11 0 -6 -16 14
-12 47 4 47 14 0 14 2 1 10 -18 11 -21 70 -3 70 6 0 14 4 18 9 3 6 -4 8 -16 6
-12 -2 -19 -2 -16 1 3 3 2 17 -4 31 -11 30 -2 73 17 73 8 0 14 5 14 11 0 5 -5
7 -11 3 -14 -8 -9 55 5 75 8 11 8 13 -1 8 -16 -10 -16 95 0 105 9 6 9 8 0 8
-7 0 -13 12 -13 28 0 21 2 24 10 12 8 -13 10 -12 10 3 0 9 -4 17 -8 17 -4 0
-8 9 -9 19 -1 17 4 19 48 17 27 -2 52 1 55 5 3 5 13 5 22 0 9 -4 26 -7 37 -5
11 2 26 -4 34 -14 11 -14 13 -14 8 -1 -4 13 2 16 36 15 23 -1 48 2 55 7 15 11
17 -4 2 -19 -7 -7 -6 -11 5 -11 8 0 13 2 10 5 -8 8 16 43 26 37 5 -4 9 -3 9 2
0 4 9 19 19 33 17 21 21 22 38 10 15 -12 16 -12 6 0 -15 17 -17 54 -3 45 6 -3
10 -1 10 4 0 6 -5 11 -10 11 -7 0 -7 6 0 19 5 11 7 27 4 35 -4 11 0 16 12 16
16 0 17 -2 4 -10 -10 -7 -11 -10 -2 -10 7 0 15 7 19 16 5 12 7 13 14 3 4 -8 3
-16 -3 -20 -6 -4 0 -6 14 -6 13 1 25 7 25 14 0 6 -6 9 -14 6 -7 -3 -13 1 -13
8 0 7 3 9 7 6 3 -4 18 0 32 10 24 15 25 15 12 0 -12 -15 -12 -17 3 -11 9 3 16
12 16 19 0 6 9 20 19 29 11 10 25 31 31 47 7 16 15 27 19 25 4 -3 8 5 8 17 2
16 0 18 -6 8 -6 -9 -9 -2 -9 23 0 20 5 36 12 36 8 0 8 2 0 8 -15 9 -14 104 0
114 7 5 6 8 -4 8 -13 0 -13 1 0 10 9 6 10 10 3 10 -8 0 -12 16 -11 45 0 24 4
42 9 39 5 -3 9 0 9 5 0 6 -4 11 -9 11 -12 0 -8 43 4 52 7 5 6 8 0 8 -6 0 -12
20 -12 45 -1 26 3 43 8 40 5 -4 9 -1 9 4 0 6 -4 11 -10 11 -5 0 -10 7 -10 15
0 8 6 15 13 15 8 0 7 4 -3 10 -13 9 -13 10 0 10 11 0 12 3 3 8 -6 4 -12 26
-11 50 0 23 4 39 9 36 5 -3 9 0 9 5 0 6 -4 11 -9 11 -12 0 -8 43 4 52 7 5 6 8
0 8 -6 0 -12 20 -12 45 -1 26 3 43 8 40 5 -4 9 -1 9 4 0 6 -4 11 -10 11 -5 0
-10 7 -10 16 0 9 5 12 13 8 9 -6 9 -4 1 7 -14 17 -16 82 -3 74 5 -4 9 -1 9 4
0 6 -4 11 -9 11 -5 0 -9 25 -9 55 1 30 5 52 10 49 4 -3 8 0 8 5 0 6 -4 11 -9
11 -5 0 -9 23 -8 51 1 42 3 48 13 35 11 -15 12 -15 18 1 4 10 4 14 0 11 -3 -4
-12 -2 -18 5 -17 17 -19 177 -3 177 9 0 9 2 1 8 -12 8 -29 52 -26 65 1 5 -2 6
-8 2 -6 -3 -14 3 -18 15 -4 12 -11 21 -15 21 -18 -2 -19 0 -6 17 12 15 12 16
-2 5 -9 -7 -18 -10 -21 -8 -11 11 -55 16 -158 18 -84 2 -105 5 -105 17 0 8
-11 17 -24 20 -19 4 -25 12 -24 33 1 15 2 28 3 30 6 7 6 77 0 77 -3 0 -7 7 -7
15 0 8 7 15 16 15 12 0 11 3 -4 13 -12 9 -14 16 -7 21 8 5 8 15 1 33 -7 20 -6
28 3 35 10 5 8 8 -5 8 -10 0 -15 5 -12 10 3 6 1 10 -4 10 -6 0 -11 10 -12 23
0 12 -3 17 -5 10 -3 -7 -14 -2 -30 14 -13 13 -29 21 -34 18 -6 -3 -10 -2 -10
3 0 5 -8 9 -17 9 -58 0 -74 4 -68 16 4 6 0 4 -8 -6 -9 -11 -18 -14 -21 -8 -4
5 -1 13 5 17 8 4 7 9 -2 16 -11 7 -9 9 6 5 15 -3 21 1 21 14 0 13 -3 15 -13 7
-16 -13 -15 -17 -17 64 -1 36 2 64 6 62 4 -3 8 0 8 5 0 6 -4 11 -9 11 -10 0
-9 76 1 86 4 3 0 13 -8 21 -8 9 -13 22 -10 29 3 8 -1 14 -9 14 -8 0 -15 6 -15
13 0 13 -47 42 -62 39 -5 -1 -8 2 -8 7 0 5 -36 8 -80 7 -45 0 -82 3 -84 9 -3
6 -5 5 -5 -2 -1 -8 -10 -9 -28 -4 -16 4 -40 4 -55 0 -17 -4 -28 -3 -28 2 0 6
-5 7 -12 3 -18 -12 -187 -10 -192 1 -3 6 -5 5 -5 -2 -1 -8 -10 -9 -28 -4 -16
4 -40 4 -55 0 -17 -4 -28 -3 -31 4 -2 7 -6 7 -9 1z m979 -829 c0 -8 -8 -15
-17 -15 -9 0 -17 7 -17 15 0 8 8 15 17 15 9 0 17 -7 17 -15z m-2407 -2629 c0
-3 -4 -8 -10 -11 -5 -3 -10 -1 -10 4 0 6 5 11 10 11 6 0 10 -2 10 -4z"/>
<path d="M4019 4233 c-13 -16 -12 -17 4 -4 9 7 17 15 17 17 0 8 -8 3 -21 -13z"/>
<path d="M1740 4176 c0 -2 7 -7 16 -10 8 -3 12 -2 9 4 -6 10 -25 14 -25 6z"/>
<path d="M4030 4160 c0 -5 5 -10 11 -10 5 0 7 5 4 10 -3 6 -8 10 -11 10 -2 0
-4 -4 -4 -10z"/>
<path d="M4016 4107 c3 -10 9 -15 12 -12 3 3 0 11 -7 18 -10 9 -11 8 -5 -6z"/>
<path d="M4014 4052 c3 -5 0 -13 -6 -15 -9 -4 -10 -6 -1 -6 17 -1 25 16 12 25
-7 4 -9 3 -5 -4z"/>
<path d="M2376 4042 c-2 -4 -1 -14 4 -22 7 -11 9 -9 7 8 -1 24 -3 26 -11 14z"/>
<path d="M2355 3965 c0 -13 3 -21 8 -18 4 2 7 10 7 18 0 8 -3 16 -7 18 -5 3
-8 -5 -8 -18z"/>
<path d="M2366 3925 c-9 -26 -7 -32 5 -12 6 10 9 21 6 23 -2 3 -7 -2 -11 -11z"/>
<path d="M2370 3840 c0 -5 5 -10 10 -10 6 0 10 5 10 10 0 6 -4 10 -10 10 -5 0
-10 -4 -10 -10z"/>
<path d="M2357 3819 c7 -7 15 -10 18 -7 3 3 -2 9 -12 12 -14 6 -15 5 -6 -5z"/>
<path d="M4250 3739 c0 -5 5 -7 10 -4 6 3 10 8 10 11 0 2 -4 4 -10 4 -5 0 -10
-5 -10 -11z"/>
<path d="M4627 3319 c7 -7 15 -10 18 -7 3 3 -2 9 -12 12 -14 6 -15 5 -6 -5z"/>
<path d="M4625 3240 c-3 -6 1 -7 9 -4 18 7 21 14 7 14 -6 0 -13 -4 -16 -10z"/>
<path d="M4620 3146 c0 -2 7 -7 16 -10 8 -3 12 -2 9 4 -6 10 -25 14 -25 6z"/>
<path d="M4635 3079 c-4 -6 -5 -12 -2 -15 2 -3 7 2 10 11 7 17 1 20 -8 4z"/>
<path d="M4630 2950 c0 -5 5 -10 11 -10 5 0 7 5 4 10 -3 6 -8 10 -11 10 -2 0
-4 -4 -4 -10z"/>
<path d="M4646 2878 c3 -5 10 -6 15 -3 13 9 11 12 -6 12 -8 0 -12 -4 -9 -9z"/>
<path d="M4637 2843 c-4 -3 -7 -11 -7 -17 0 -6 5 -5 12 2 6 6 9 14 7 17 -3 3
-9 2 -12 -2z"/>
<path d="M4646 2782 c-3 -5 1 -9 9 -9 8 0 12 4 9 9 -3 4 -7 8 -9 8 -2 0 -6 -4
-9 -8z"/>
<path d="M4635 2679 c-4 -6 -5 -12 -2 -15 2 -3 7 2 10 11 7 17 1 20 -8 4z"/>
<path d="M4620 2626 c0 -2 7 -7 16 -10 8 -3 12 -2 9 4 -6 10 -25 14 -25 6z"/>
<path d="M4636 2575 c-11 -8 -15 -15 -9 -15 6 0 16 7 23 15 16 19 11 19 -14 0z"/>
<path d="M4637 2523 c-4 -3 -7 -11 -7 -17 0 -6 5 -5 12 2 6 6 9 14 7 17 -3 3
-9 2 -12 -2z"/>
<path d="M4646 2462 c-3 -5 1 -9 9 -9 8 0 12 4 9 9 -3 4 -7 8 -9 8 -2 0 -6 -4
-9 -8z"/>
<path d="M4635 2359 c-4 -6 -5 -12 -2 -15 2 -3 7 2 10 11 7 17 1 20 -8 4z"/>
<path d="M4620 2306 c0 -2 7 -7 16 -10 8 -3 12 -2 9 4 -6 10 -25 14 -25 6z"/>
<path d="M4638 2257 c-9 -7 -13 -18 -10 -24 5 -7 12 -2 19 13 6 13 10 24 10
24 -1 0 -10 -6 -19 -13z"/>
<path d="M4620 2186 c0 -2 7 -7 16 -10 8 -3 12 -2 9 4 -6 10 -25 14 -25 6z"/>
<path d="M4627 2113 c3 -7 6 -13 8 -13 2 0 5 6 8 13 3 8 -1 14 -8 14 -7 0 -11
-6 -8 -14z"/>
<path d="M4640 2040 c-12 -7 -10 -9 7 -7 12 0 19 5 17 9 -6 10 -6 10 -24 -2z"/>
<path d="M4610 2031 c0 -6 4 -13 10 -16 6 -3 7 1 4 9 -7 18 -14 21 -14 7z"/>
<path d="M4607 1999 c7 -7 15 -10 18 -7 3 3 -2 9 -12 12 -14 6 -15 5 -6 -5z"/>
<path d="M4572 1977 c-8 -9 -8 -17 0 -27 8 -13 9 -12 5 2 -3 9 -1 19 6 21 7 2
9 7 6 11 -3 4 -11 1 -17 -7z"/>
<path d="M291 1913 c-1 -17 16 -25 25 -12 4 7 3 9 -4 5 -5 -3 -13 0 -15 6 -4
9 -6 10 -6 1z"/>
<path d="M4435 1890 c-3 -5 -2 -18 4 -27 7 -14 9 -12 8 10 -2 30 -3 31 -12 17z"/>
<path d="M4420 1826 c0 -2 8 -10 18 -17 15 -13 16 -12 3 4 -13 16 -21 21 -21
13z"/>
<path d="M4396 1787 c3 -10 9 -15 12 -12 3 3 0 11 -7 18 -10 9 -11 8 -5 -6z"/>
<path d="M4377 1761 c-4 -17 -3 -21 5 -13 5 5 8 16 6 23 -3 8 -7 3 -11 -10z"/>
<path d="M4121 1733 c-1 -17 16 -25 25 -12 4 7 3 9 -4 5 -5 -3 -13 0 -15 6 -4
9 -6 10 -6 1z"/>
<path d="M4030 1725 c0 -5 4 -15 8 -22 6 -9 11 -7 20 7 7 12 8 20 2 20 -5 0
-10 -6 -10 -12 0 -9 -4 -8 -10 2 -5 8 -10 11 -10 5z"/>
<path d="M4273 1715 c0 -8 4 -12 9 -9 5 3 6 10 3 15 -9 13 -12 11 -12 -6z"/>
<path d="M4146 1704 c-11 -8 -16 -14 -10 -14 13 0 39 18 34 24 -3 2 -14 -2
-24 -10z"/>
<path d="M4230 1710 c0 -6 7 -10 15 -10 8 0 15 2 15 4 0 2 -7 6 -15 10 -8 3
-15 1 -15 -4z"/>
<path d="M590 1700 c0 -5 7 -7 15 -4 8 4 15 8 15 10 0 2 -7 4 -15 4 -8 0 -15
-4 -15 -10z"/>
<path d="M655 1700 c3 -5 8 -10 11 -10 2 0 4 5 4 10 0 6 -5 10 -11 10 -5 0 -7
-4 -4 -10z"/>
<path d="M4069 1677 c7 -7 14 -8 21 -1 6 6 2 10 -12 11 -16 2 -18 -1 -9 -10z"/>
<path d="M4030 1660 c-13 -8 -12 -10 3 -10 9 0 17 5 17 10 0 12 -1 12 -20 0z"/>
<path d="M716 1642 c-3 -5 1 -9 9 -9 8 0 12 4 9 9 -3 4 -7 8 -9 8 -2 0 -6 -4
-9 -8z"/>
<path d="M4030 1610 c-6 -11 -8 -20 -6 -20 3 0 10 9 16 20 6 11 8 20 6 20 -3
0 -10 -9 -16 -20z"/>
<path d="M4040 1580 c-12 -7 -10 -9 7 -7 12 0 19 5 17 9 -6 10 -6 10 -24 -2z"/>
<path d="M4022 1545 c3 -3 16 -8 28 -10 12 -2 20 -1 16 2 -4 4 -16 8 -28 10
-12 2 -19 1 -16 -2z"/>
<path d="M4011 1407 c-8 -10 -7 -14 2 -14 8 0 14 6 14 14 0 7 -1 13 -2 13 -2
0 -8 -6 -14 -13z"/>
<path d="M4007 1363 c3 -7 8 -13 12 -13 4 0 8 6 8 13 0 8 -6 14 -13 14 -7 0
-10 -6 -7 -14z"/>
<path d="M2375 1310 c-3 -5 -1 -10 4 -10 6 0 11 5 11 10 0 6 -2 10 -4 10 -3 0
-8 -4 -11 -10z"/>
<path d="M2396 1292 c-2 -4 -1 -14 4 -22 7 -11 9 -9 7 8 -1 24 -3 26 -11 14z"/>
<path d="M2360 1281 c0 -5 7 -14 15 -21 10 -9 15 -9 15 -1 0 6 -5 11 -11 11
-5 0 -7 5 -4 10 3 6 1 10 -4 10 -6 0 -11 -4 -11 -9z"/>
<path d="M4026 1263 c-6 -14 -5 -15 5 -6 7 7 10 15 7 18 -3 3 -9 -2 -12 -12z"/>
<path d="M2395 1230 c6 -10 4 -12 -11 -6 -15 6 -17 5 -6 -5 9 -9 15 -10 23 -2
8 8 7 13 -2 18 -8 6 -10 4 -4 -5z"/>
<path d="M4030 1118 c0 -4 4 -8 9 -8 6 0 12 4 15 8 3 5 -1 9 -9 9 -8 0 -15 -4
-15 -9z"/>
<path d="M2370 1111 c0 -6 4 -13 10 -16 6 -3 7 1 4 9 -7 18 -14 21 -14 7z"/>
<path d="M2367 1079 c7 -7 15 -10 18 -7 3 3 -2 9 -12 12 -14 6 -15 5 -6 -5z"/>
<path d="M4030 1059 c0 -5 5 -7 10 -4 6 3 10 8 10 11 0 2 -4 4 -10 4 -5 0 -10
-5 -10 -11z"/>
<path d="M4010 1000 c0 -5 5 -10 10 -10 6 0 10 5 10 10 0 6 -4 10 -10 10 -5 0
-10 -4 -10 -10z"/>
<path d="M4026 965 c-3 -8 -1 -15 4 -15 6 0 10 7 10 15 0 8 -2 15 -4 15 -2 0
-6 -7 -10 -15z"/>
<path d="M2433 945 c0 -8 4 -12 9 -9 5 3 6 10 3 15 -9 13 -12 11 -12 -6z"/>
<path d="M4014 918 c0 -16 2 -16 18 -1 10 9 18 17 18 17 0 1 -8 2 -18 2 -10 0
-18 -8 -18 -18z"/>
<path d="M2270 912 c0 -15 28 -23 36 -9 4 7 4 9 -1 5 -4 -4 -14 -3 -22 3 -8 7
-13 8 -13 1z"/>
<path d="M4036 895 c-11 -8 -15 -15 -9 -15 7 0 15 5 18 10 4 6 11 7 17 4 7 -4
8 -2 4 4 -9 14 -7 15 -30 -3z"/>
<path d="M1893 893 c-17 -6 -17 -20 0 -20 8 0 14 6 14 14 0 7 -1 13 -1 12 -1
0 -7 -3 -13 -6z"/>
<path d="M2113 884 c0 -7 7 -10 15 -6 11 4 13 1 7 -9 -5 -8 -4 -11 0 -6 16 14
13 33 -5 33 -9 0 -17 -6 -17 -12z"/>
<path d="M2231 867 c-13 -21 -12 -21 5 -5 10 10 16 20 13 22 -3 3 -11 -5 -18
-17z"/>
<path d="M2267 879 c7 -7 15 -10 18 -7 3 3 -2 9 -12 12 -14 6 -15 5 -6 -5z"/>
<path d="M2510 880 c0 -5 5 -10 11 -10 5 0 7 5 4 10 -3 6 -8 10 -11 10 -2 0
-4 -4 -4 -10z"/>
<path d="M2155 860 c-3 -5 -1 -10 4 -10 6 0 11 5 11 10 0 6 -2 10 -4 10 -3 0
-8 -4 -11 -10z"/>
<path d="M2885 860 c-3 -6 1 -7 9 -4 18 7 21 14 7 14 -6 0 -13 -4 -16 -10z"/>
<path d="M4025 856 c19 -14 19 -15 2 -33 -20 -23 -22 -33 -5 -33 6 0 8 3 5 7
-4 3 0 15 9 25 14 14 14 20 4 33 -7 8 -17 15 -23 15 -6 0 -2 -6 8 -14z"/>
<path d="M2710 856 c0 -2 8 -10 18 -17 15 -13 16 -12 3 4 -13 16 -21 21 -21
13z"/>
<path d="M1770 780 c0 -5 5 -10 11 -10 5 0 7 5 4 10 -3 6 -8 10 -11 10 -2 0
-4 -4 -4 -10z"/>
<path d="M4028 773 c7 -3 16 -2 19 1 4 3 -2 6 -13 5 -11 0 -14 -3 -6 -6z"/>
<path d="M4013 735 c0 -8 4 -12 9 -9 5 3 6 10 3 15 -9 13 -12 11 -12 -6z"/>
<path d="M4030 700 c0 -5 5 -10 11 -10 5 0 7 5 4 10 -3 6 -8 10 -11 10 -2 0
-4 -4 -4 -10z"/>
<path d="M4012 645 c3 -3 16 -8 28 -10 12 -2 20 -1 16 2 -4 4 -16 8 -28 10
-12 2 -19 1 -16 -2z"/>
<path d="M1760 620 c-12 -7 -10 -9 7 -7 12 0 19 5 17 9 -6 10 -6 10 -24 -2z"/>
<path d="M4030 559 c0 -5 5 -7 10 -4 6 3 10 8 10 11 0 2 -4 4 -10 4 -5 0 -10
-5 -10 -11z"/>
<path d="M1696 525 c-3 -8 -1 -15 4 -15 6 0 10 7 10 15 0 8 -2 15 -4 15 -2 0
-6 -7 -10 -15z"/>
<path d="M1676 487 c3 -10 9 -15 12 -12 3 3 0 11 -7 18 -10 9 -11 8 -5 -6z"/>
<path d="M3930 491 c0 -6 4 -13 10 -16 6 -3 7 1 4 9 -7 18 -14 21 -14 7z"/>
<path d="M910 486 c0 -2 7 -7 16 -10 8 -3 12 -2 9 4 -6 10 -25 14 -25 6z"/>
<path d="M1184 472 c0 -10 6 -19 13 -19 8 0 9 6 2 19 -5 10 -11 18 -12 18 -2
0 -3 -8 -3 -18z"/>
<path d="M1247 473 c3 -7 6 -13 8 -13 2 0 5 6 8 13 3 8 -1 14 -8 14 -7 0 -11
-6 -8 -14z"/>
<path d="M1335 479 c-4 -6 -5 -12 -2 -15 2 -3 7 2 10 11 7 17 1 20 -8 4z"/>
<path d="M1397 479 c7 -7 15 -10 18 -7 3 3 -2 9 -12 12 -14 6 -15 5 -6 -5z"/>
<path d="M1504 472 c0 -10 6 -19 13 -19 8 0 9 6 2 19 -5 10 -11 18 -12 18 -2
0 -3 -8 -3 -18z"/>
<path d="M995 460 c3 -5 8 -10 11 -10 2 0 4 5 4 10 0 6 -5 10 -11 10 -5 0 -7
-4 -4 -10z"/>
<path d="M1135 460 c-3 -5 -1 -10 4 -10 6 0 11 5 11 10 0 6 -2 10 -4 10 -3 0
-8 -4 -11 -10z"/>
<path d="M1273 453 c0 -9 4 -10 14 -2 7 6 13 12 13 14 0 1 -6 2 -13 2 -8 0
-14 -6 -14 -14z"/>
<path d="M1455 460 c-3 -5 -1 -10 4 -10 6 0 11 5 11 10 0 6 -2 10 -4 10 -3 0
-8 -4 -11 -10z"/>
<path d="M1586 458 c3 -5 10 -6 15 -3 13 9 11 12 -6 12 -8 0 -12 -4 -9 -9z"/>
<path d="M1650 460 c0 -5 5 -10 11 -10 5 0 7 5 4 10 -3 6 -8 10 -11 10 -2 0
-4 -4 -4 -10z"/>
<path d="M3135 460 c3 -5 8 -10 11 -10 2 0 4 5 4 10 0 6 -5 10 -11 10 -5 0 -7
-4 -4 -10z"/>
<path d="M3460 466 c0 -2 7 -7 16 -10 8 -3 12 -2 9 4 -6 10 -25 14 -25 6z"/>
<path d="M3695 460 c-3 -5 -1 -10 4 -10 6 0 11 5 11 10 0 6 -2 10 -4 10 -3 0
-8 -4 -11 -10z"/>
<path d="M3840 460 c8 -5 20 -10 25 -10 6 0 3 5 -5 10 -8 5 -19 10 -25 10 -5
0 -3 -5 5 -10z"/>
<path d="M3396 447 c3 -10 9 -15 12 -12 3 3 0 11 -7 18 -10 9 -11 8 -5 -6z"/>
<path d="M3570 456 c0 -2 8 -10 18 -17 15 -13 16 -12 3 4 -13 16 -21 21 -21
13z"/>
<path d="M1346 439 c4 -8 30 -6 38 2 3 3 -5 5 -19 5 -13 0 -22 -3 -19 -7z"/>
</g>
</svg>
